<svg width="28" height="28" viewBox="0 0 28 28" fill="none" xmlns="http://www.w3.org/2000/svg">
<rect x="0.5" y="0.5" width="27" height="27" stroke="#180D2F"/>
<mask id="path-2-inside-1_320_232" fill="white">
<path d="M13.3018 18L12 16.7979L15.0314 14L12 11.2021L13.3018 10L16.5504 12.9984C16.693 13.13 16.806 13.2861 16.8832 13.4579C16.9603 13.6298 17 13.814 17 14C17 14.186 16.9603 14.3702 16.8832 14.5421C16.806 14.7139 16.693 14.87 16.5504 15.0016L13.3018 18Z"/>
</mask>
<path d="M13.3018 18L12 16.7979L15.0314 14L12 11.2021L13.3018 10L16.5504 12.9984C16.693 13.13 16.806 13.2861 16.8832 13.4579C16.9603 13.6298 17 13.814 17 14C17 14.186 16.9603 14.3702 16.8832 14.5421C16.806 14.7139 16.693 14.87 16.5504 15.0016L13.3018 18Z" fill="#180D2F"/>
<path d="M13.3018 18L-1.17107 33.6731L13.2984 47.0345L27.771 33.6766L13.3018 18ZM12 16.7979L-2.46917 1.12135L-19.4498 16.7942L-2.47286 32.471L12 16.7979ZM15.0314 14L29.5005 29.6766L46.4852 14L29.5005 -1.67655L15.0314 14ZM12 11.2021L-2.47285 -4.47106L-19.4499 11.2058L-2.46917 26.8786L12 11.2021ZM13.3018 10L27.771 -5.67655L13.2984 -19.0345L-1.17106 -5.67315L13.3018 10ZM16.5504 12.9984L2.08127 28.675L2.08333 28.6769L16.5504 12.9984ZM16.5504 15.0016L2.08333 -0.676897L2.08127 -0.674995L16.5504 15.0016ZM27.7747 2.32686L26.4729 1.12476L-2.47286 32.471L-1.17107 33.6731L27.7747 2.32686ZM26.4692 32.4745L29.5005 29.6766L0.562208 -1.67655L-2.46917 1.12135L26.4692 32.4745ZM29.5005 -1.67655L26.4692 -4.47446L-2.46917 26.8786L0.562207 29.6766L29.5005 -1.67655ZM26.4729 26.8752L27.7746 25.6732L-1.17106 -5.67315L-2.47285 -4.47106L26.4729 26.8752ZM-1.16738 25.6766L2.08127 28.675L31.0196 -2.67811L27.771 -5.67655L-1.16738 25.6766ZM2.08333 28.6769C0.173099 26.9143 -1.442 24.728 -2.57945 22.194L36.3458 4.72193C35.0541 1.84416 33.2128 -0.654339 31.0175 -2.68001L2.08333 28.6769ZM-2.57945 22.194C-3.71938 19.6543 -4.33333 16.8645 -4.33333 14H38.3333C38.3333 10.7635 37.64 7.60524 36.3458 4.72193L-2.57945 22.194ZM-4.33333 14C-4.33333 11.1355 -3.71938 8.34565 -2.57945 5.80604L36.3458 23.2781C37.64 20.3948 38.3333 17.2365 38.3333 14H-4.33333ZM-2.57945 5.80604C-1.442 3.27197 0.173099 1.08575 2.08333 -0.676897L31.0175 30.68C33.2128 28.6543 35.0541 26.1558 36.3458 23.2781L-2.57945 5.80604ZM2.08127 -0.674995L-1.16738 2.32345L27.771 33.6766L31.0196 30.6781L2.08127 -0.674995Z" fill="#180D2F" mask="url(#path-2-inside-1_320_232)"/>
</svg>
