<svg xmlns="http://www.w3.org/2000/svg" width="12" height="12" viewBox="0 0 12 12" fill="none">
    <g clip-path="url(#clip0_492_35964)">
        <path d="M8.80653 6.42394L11.939 9.55641L10.3535 11.1419C10.0772 11.4171 9.74894 11.6346 9.38785 11.7819C9.02675 11.9292 8.64 12.0033 8.25003 11.9999C4.62606 11.9999 9.75499e-05 7.37393 9.75499e-05 3.74996C-0.00307408 3.35996 0.0711228 2.9732 0.218396 2.61205C0.365668 2.25091 0.583093 1.92255 0.858091 1.64598L2.44358 0.0609994L5.57605 3.19347L3.51357 5.25595C4.12672 6.71308 5.28434 7.87338 6.74004 8.48992L8.80653 6.42394ZM11 4.99995H12C11.9985 3.67433 11.4713 2.40342 10.5339 1.46606C9.59658 0.528703 8.32567 0.00145578 7.00004 0V0.999991C8.06053 1.00118 9.07725 1.42299 9.82713 2.17287C10.577 2.92275 10.9988 3.93946 11 4.99995ZM9.00002 4.99995H10C9.99922 4.20455 9.6829 3.44196 9.12047 2.87953C8.55803 2.3171 7.79544 2.00078 7.00004 1.99998V2.99997C7.53047 2.99997 8.03917 3.21068 8.41424 3.58575C8.78931 3.96082 9.00002 4.46953 9.00002 4.99995Z" fill="white" fill-opacity="0.4"/>
    </g>
    <defs>
        <clipPath id="clip0_492_35964">
            <rect width="12" height="12" fill="white"/>
        </clipPath>
    </defs>
</svg>
