<svg xmlns="http://www.w3.org/2000/svg" width="12" height="12" viewBox="0 0 12 12" fill="none">
    <g clip-path="url(#clip0_492_35971)">
        <path d="M4.93888 6.27312C5.22066 6.55378 5.60217 6.71136 5.99988 6.71136C6.39758 6.71136 6.77909 6.55378 7.06087 6.27312L11.8904 1.44312C11.7792 1.16511 11.5873 0.926735 11.3395 0.758677C11.0917 0.59062 10.7993 0.500571 10.4999 0.500122H1.49987C1.20045 0.500571 0.908021 0.59062 0.660211 0.758677C0.412402 0.926735 0.22056 1.16511 0.109375 1.44312L4.93888 6.27312Z" fill="white" fill-opacity="0.4"/>
        <path d="M7.768 6.98012C7.29869 7.44825 6.66287 7.71114 6 7.71114C5.33713 7.71114 4.70131 7.44825 4.232 6.98012L0 2.75012V11.5001H12V2.75012L7.768 6.98012Z" fill="white" fill-opacity="0.4"/>
    </g>
    <defs>
        <clipPath id="clip0_492_35971">
            <rect width="12" height="12" fill="white"/>
        </clipPath>
    </defs>
</svg>
