<svg width="40" height="40" viewBox="0 0 40 40" fill="none" xmlns="http://www.w3.org/2000/svg">
    <g id="&#208;&#161;&#208;&#190;&#209;&#134;&#209;&#129;&#208;&#181;&#209;&#130;&#208;&#184;">
        <circle id="Ellipse 3" cx="20" cy="20" r="20" fill="none"/>
        <g id="Group 8">
            <path id="Vector" d="M14.1768 20.3061C13.6863 21.2703 14.2432 21.7311 15.5138 22.5184C16.594 23.1857 18.0862 23.4298 19.0447 23.5274C18.6518 23.905 20.4521 22.1736 15.2674 27.1607C14.168 28.2145 15.9379 29.9051 17.0364 28.8738L20.0104 26.0053C21.149 27.1007 22.2404 28.1504 22.9845 28.8778C24.0838 29.9131 25.8529 28.2369 24.7655 27.1647C24.6839 27.0871 20.7353 23.2994 20.9762 23.5314C21.9467 23.4338 23.4165 23.1753 24.4839 22.5224L24.4831 22.5216C25.7537 21.7303 26.3105 21.2703 25.8273 20.3061C25.5352 19.7589 24.7479 19.3012 23.6998 20.0925C23.6998 20.0925 22.2844 21.1767 20.0016 21.1767C17.7181 21.1767 16.3035 20.0925 16.3035 20.0925C15.2562 19.2972 14.4656 19.7589 14.1768 20.3061Z" fill="white"/>
            <path id="Vector_2" d="M20.0003 19.715C22.7831 19.715 25.0554 17.5403 25.0554 14.8631C25.0554 12.1747 22.7831 10 20.0003 10C17.2167 10 14.9443 12.1747 14.9443 14.8631C14.9443 17.5403 17.2167 19.715 20.0003 19.715ZM20.0003 12.4636C21.3677 12.4636 22.483 13.5365 22.483 14.8631C22.483 16.1785 21.3677 17.2514 20.0003 17.2514C18.6329 17.2514 17.5175 16.1785 17.5175 14.8631C17.5167 13.5357 18.6321 12.4636 20.0003 12.4636Z" fill="white"/>
        </g>
    </g>
</svg>
