<svg width="28" height="28" viewBox="0 0 28 28" fill="none" xmlns="http://www.w3.org/2000/svg">
<g id="&#208;&#154;&#208;&#189;&#208;&#190;&#208;&#191;&#208;&#186;&#208;&#176; &#209;&#129;&#209;&#130;&#209;&#128;&#208;&#181;&#208;&#187;&#208;&#186;&#208;&#176;">
<rect id="Rectangle 751" x="-0.5" y="0.5" width="27" height="27" transform="matrix(-1 0 0 1 27 0)" stroke="#C3BECD"/>
<g id="Vector">
<mask id="path-2-inside-1_117_29514" fill="white">
<path d="M14.6982 18L16 16.7979L12.9686 14L16 11.2021L14.6982 10L11.4496 12.9984C11.307 13.13 11.194 13.2861 11.1168 13.4579C11.0397 13.6298 11 13.814 11 14C11 14.186 11.0397 14.3702 11.1168 14.5421C11.194 14.7139 11.307 14.87 11.4496 15.0016L14.6982 18Z"/>
</mask>
<path d="M14.6982 18L16 16.7979L12.9686 14L16 11.2021L14.6982 10L11.4496 12.9984C11.307 13.13 11.194 13.2861 11.1168 13.4579C11.0397 13.6298 11 13.814 11 14C11 14.186 11.0397 14.3702 11.1168 14.5421C11.194 14.7139 11.307 14.87 11.4496 15.0016L14.6982 18Z" fill="#180D2F"/>
<path d="M14.6982 18L29.1711 33.6731L14.7016 47.0345L0.22904 33.6766L14.6982 18ZM16 16.7979L30.4692 1.12135L47.4498 16.7942L30.4729 32.471L16 16.7979ZM12.9686 14L-1.50054 29.6766L-18.4852 14L-1.50054 -1.67655L12.9686 14ZM16 11.2021L30.4729 -4.47106L47.4499 11.2058L30.4692 26.8786L16 11.2021ZM14.6982 10L0.229042 -5.67655L14.7016 -19.0345L29.1711 -5.67315L14.6982 10ZM11.4496 12.9984L25.9187 28.675L25.9167 28.6769L11.4496 12.9984ZM11.4496 15.0016L25.9167 -0.676897L25.9187 -0.674995L11.4496 15.0016ZM0.225349 2.32686L1.52714 1.12476L30.4729 32.471L29.1711 33.6731L0.225349 2.32686ZM1.53083 32.4745L-1.50054 29.6766L27.4378 -1.67655L30.4692 1.12135L1.53083 32.4745ZM-1.50054 -1.67655L1.53083 -4.47446L30.4692 26.8786L27.4378 29.6766L-1.50054 -1.67655ZM1.52715 26.8752L0.225356 25.6732L29.1711 -5.67315L30.4729 -4.47106L1.52715 26.8752ZM29.1674 25.6766L25.9187 28.675L-3.01961 -2.67811L0.229042 -5.67655L29.1674 25.6766ZM25.9167 28.6769C27.8269 26.9143 29.442 24.728 30.5794 22.194L-8.34577 4.72193C-7.05405 1.84416 -5.21283 -0.654339 -3.01755 -2.68001L25.9167 28.6769ZM30.5794 22.194C31.7194 19.6543 32.3333 16.8645 32.3333 14H-10.3333C-10.3333 10.7635 -9.63998 7.60524 -8.34577 4.72193L30.5794 22.194ZM32.3333 14C32.3333 11.1355 31.7194 8.34565 30.5794 5.80604L-8.34577 23.2781C-9.63998 20.3948 -10.3333 17.2365 -10.3333 14H32.3333ZM30.5794 5.80604C29.442 3.27197 27.8269 1.08575 25.9167 -0.676897L-3.01755 30.68C-5.21283 28.6543 -7.05405 26.1558 -8.34577 23.2781L30.5794 5.80604ZM25.9187 -0.674995L29.1674 2.32345L0.22904 33.6766L-3.01961 30.6781L25.9187 -0.674995Z" fill="#6F6B77" mask="url(#path-2-inside-1_117_29514)"/>
</g>
</g>
</svg>
