<svg xmlns="http://www.w3.org/2000/svg" width="14" height="15" viewBox="0 0 14 15" fill="none">
    <path d="M7 14.5C5.61553 14.5 4.26215 14.0895 3.11101 13.3203C1.95987 12.5511 1.06266 11.4579 0.532846 10.1788C0.003033 8.8997 -0.13559 7.49224 0.134506 6.13437C0.404603 4.7765 1.07129 3.52922 2.05026 2.55026C3.02922 1.57129 4.2765 0.904603 5.63437 0.634506C6.99224 0.36441 8.3997 0.503033 9.67879 1.03285C10.9579 1.56266 12.0511 2.45987 12.8203 3.61101C13.5895 4.76215 14 6.11553 14 7.5C13.998 9.3559 13.2599 11.1352 11.9475 12.4475C10.6352 13.7599 8.8559 14.498 7 14.5ZM7 2.25C5.96165 2.25 4.94662 2.55791 4.08326 3.13479C3.2199 3.71166 2.547 4.5316 2.14964 5.49091C1.75228 6.45023 1.64831 7.50583 1.85088 8.52423C2.05345 9.54263 2.55347 10.4781 3.28769 11.2123C4.02192 11.9465 4.95738 12.4466 5.97578 12.6491C6.99418 12.8517 8.04978 12.7477 9.00909 12.3504C9.9684 11.953 10.7883 11.2801 11.3652 10.4167C11.9421 9.55339 12.25 8.53835 12.25 7.5C12.2485 6.10809 11.6948 4.77363 10.7106 3.7894C9.72638 2.80517 8.39191 2.25155 7 2.25Z" fill="white" fill-opacity="0.6"/>
    <path d="M4.91206 9.77293L3.9834 8.2901L6.12481 6.94902V4.15894H7.87481V7.91735L4.91206 9.77293Z" fill="white" fill-opacity="0.6"/>
</svg>
