<svg xmlns="http://www.w3.org/2000/svg" width="13" height="14" viewBox="0 0 13 14" fill="none">
    <path d="M6.5 13.5C5.21442 13.5 3.95772 13.1188 2.8888 12.4046C1.81988 11.6903 0.986755 10.6752 0.494786 9.48744C0.00281636 8.29972 -0.125905 6.99279 0.124899 5.73191C0.375702 4.47104 0.994767 3.31285 1.90381 2.40381C2.81285 1.49477 3.97104 0.875702 5.23191 0.624899C6.49279 0.374095 7.79972 0.502816 8.98744 0.994786C10.1752 1.48676 11.1903 2.31988 11.9046 3.3888C12.6188 4.45772 13 5.71442 13 7C12.9981 8.72334 12.3127 10.3756 11.0941 11.5941C9.87555 12.8127 8.22334 13.4981 6.5 13.5ZM6.5 2.125C5.53582 2.125 4.59329 2.41092 3.7916 2.94659C2.98991 3.48226 2.36507 4.24363 1.99609 5.13442C1.62711 6.02521 1.53057 7.00541 1.71867 7.95107C1.90678 8.89672 2.37108 9.76537 3.05286 10.4471C3.73464 11.1289 4.60328 11.5932 5.54894 11.7813C6.49459 11.9694 7.47479 11.8729 8.36558 11.5039C9.25637 11.1349 10.0177 10.5101 10.5534 9.70841C11.0891 8.90672 11.375 7.96419 11.375 7C11.3736 5.70751 10.8595 4.46837 9.94556 3.55444C9.03163 2.64051 7.79249 2.12644 6.5 2.125Z" fill="#6F6B77"/>
    <path d="M4.56106 9.11046L3.69873 7.73354L5.68719 6.48825V3.89746H7.31219V7.38742L4.56106 9.11046Z" fill="#6F6B77"/>
</svg>
