<svg width="40" height="40" viewBox="0 0 40 40" fill="none" xmlns="http://www.w3.org/2000/svg">
    <g id="&#208;&#161;&#208;&#190;&#209;&#134;&#209;&#129;&#208;&#181;&#209;&#130;&#208;&#184;">
        <circle id="Ellipse 3" cx="20" cy="20" r="20" fill="none"/>
        <path id="Vector" d="M28.5064 19.0169C28.8192 18.6303 29.0676 18.3201 29.251 18.086C30.572 16.407 31.1446 15.3344 30.9691 14.8668L30.9003 14.7573C30.8545 14.6915 30.7359 14.6311 30.5452 14.5764C30.3542 14.5217 30.1099 14.513 29.8122 14.5491L26.5134 14.5713C26.437 14.5641 26.3606 14.5658 26.2842 14.5764C26.2079 14.5875 26.1583 14.5986 26.1352 14.6093C26.1122 14.6204 26.0933 14.6293 26.0781 14.6366L26.0323 14.6695C25.9942 14.6912 25.9522 14.7297 25.9064 14.7846C25.8606 14.8395 25.8222 14.9031 25.7918 14.9763C25.4329 15.8596 25.0245 16.681 24.5662 17.4402C24.2836 17.8929 24.0239 18.2856 23.7875 18.6173C23.5507 18.9497 23.3522 19.1942 23.1918 19.3509C23.0315 19.5078 22.8862 19.634 22.7565 19.7286C22.6265 19.8238 22.5274 19.8637 22.4589 19.8492C22.39 19.8347 22.325 19.8202 22.2641 19.8052C22.1571 19.7397 22.0711 19.6505 22.0064 19.5371C21.9414 19.4242 21.8976 19.2817 21.8746 19.1101C21.8518 18.9386 21.8382 18.7907 21.8346 18.6664C21.8306 18.5424 21.8326 18.3673 21.8404 18.1407C21.848 17.9144 21.8518 17.7614 21.8518 17.6808C21.8518 17.4037 21.8576 17.1025 21.8691 16.7775C21.8804 16.4528 21.8901 16.1953 21.8976 16.0054C21.9052 15.8159 21.909 15.6149 21.909 15.4031C21.909 15.1918 21.8956 15.0254 21.8687 14.9048C21.8419 14.7846 21.8017 14.6678 21.7486 14.5544C21.695 14.4415 21.6168 14.3537 21.5136 14.2918C21.4105 14.2297 21.2827 14.1806 21.13 14.1438C20.725 14.0561 20.2096 14.0092 19.5836 14.0015C18.1632 13.9874 17.2506 14.0749 16.846 14.2645C16.6856 14.345 16.5404 14.4543 16.4107 14.5931C16.2731 14.7539 16.2542 14.8416 16.3536 14.8557C16.8118 14.9215 17.1361 15.0786 17.3271 15.3267L17.3959 15.458C17.4492 15.5532 17.5026 15.7211 17.5562 15.9619C17.6096 16.2027 17.644 16.4692 17.6594 16.7613C17.6976 17.2942 17.6976 17.7502 17.6594 18.1301C17.6212 18.5099 17.5851 18.8054 17.5507 19.0167C17.5163 19.2286 17.4647 19.4 17.3961 19.5313C17.3273 19.663 17.2816 19.7433 17.2585 19.7726C17.2355 19.8016 17.2165 19.8199 17.2014 19.8272C17.102 19.8635 16.999 19.8819 16.8921 19.8819C16.7851 19.8819 16.6553 19.8306 16.5026 19.7283C16.3498 19.6265 16.1912 19.4858 16.0273 19.3069C15.8629 19.1282 15.678 18.878 15.4716 18.5566C15.2655 18.2357 15.0515 17.8559 14.8302 17.418L14.6471 17.1003C14.5325 16.8962 14.3759 16.5985 14.1774 16.208C13.9789 15.8175 13.803 15.4399 13.6505 15.0745C13.5893 14.9215 13.4978 14.8047 13.3756 14.7241L13.3185 14.6913C13.2803 14.6622 13.2191 14.6311 13.1351 14.5984C13.0509 14.5655 12.9634 14.5418 12.8716 14.5271L9.73306 14.5488C9.41236 14.5488 9.19486 14.6185 9.0803 14.7573L9.03451 14.8228C9.01136 14.8595 9 14.9181 9 14.9981C9 15.0786 9.02302 15.177 9.06881 15.2936C9.52709 16.3232 10.0254 17.316 10.5636 18.272C11.1021 19.2286 11.5697 19.9989 11.9668 20.5828C12.3639 21.1673 12.7685 21.718 13.1811 22.2364C13.5936 22.7548 13.8665 23.0868 14 23.2326C14.1335 23.3789 14.2385 23.4885 14.3149 23.5612L14.6012 23.8243C14.7844 23.9994 15.0537 24.2092 15.4089 24.4539C15.7639 24.6986 16.157 24.9394 16.5887 25.1764C17.02 25.4139 17.5223 25.607 18.0949 25.757C18.6675 25.9069 19.2249 25.967 19.7672 25.9376H21.0844C21.3518 25.9158 21.554 25.8358 21.6915 25.6967L21.7372 25.6421C21.7675 25.5985 21.7964 25.5309 21.8232 25.4397C21.8497 25.3485 21.8635 25.2479 21.8635 25.1386C21.8556 24.8248 21.8807 24.5414 21.9378 24.29C21.995 24.038 22.0599 23.8484 22.1326 23.7203C22.2052 23.5929 22.2871 23.485 22.3789 23.3973C22.4705 23.3095 22.5352 23.257 22.5736 23.2386C22.6118 23.2207 22.6425 23.2079 22.6653 23.2002C22.8483 23.1419 23.0641 23.1985 23.3124 23.3699C23.5606 23.5419 23.7935 23.7532 24.0113 24.0051C24.2287 24.257 24.4903 24.5397 24.7958 24.8538C25.1011 25.1676 25.3684 25.4012 25.5976 25.5545L25.8267 25.6863C25.9794 25.7736 26.1778 25.8538 26.4223 25.9271C26.6667 25.9999 26.8807 26.0183 27.0637 25.9818L29.9961 25.9378C30.2862 25.9378 30.5116 25.8923 30.672 25.8009C30.8323 25.7102 30.9277 25.6092 30.9583 25.4999C30.9886 25.3904 30.9907 25.2668 30.9641 25.1277C30.9373 24.9892 30.9105 24.8925 30.884 24.8378C30.8572 24.7832 30.8323 24.7372 30.8093 24.701C30.4275 24.044 29.6982 23.2371 28.6215 22.2809L28.5985 22.2591L28.5872 22.248L28.5758 22.2373H28.5643C28.0754 21.7919 27.7663 21.4926 27.6365 21.339C27.3999 21.0475 27.3462 20.7517 27.4762 20.4524C27.5673 20.2254 27.9107 19.7472 28.5064 19.0169Z" fill="white"/>
    </g>
</svg>
