<svg width="8" height="5" viewBox="0 0 8 5" fill="none" xmlns="http://www.w3.org/2000/svg">
<mask id="path-1-inside-1_601_904" fill="white">
<path d="M-5.69031e-08 1.30179L1.2021 -2.97146e-07L4 3.03138L6.7979 -5.25453e-08L8 1.30179L5.00156 4.55044C4.87004 4.69296 4.7139 4.80602 4.54205 4.88316C4.3702 4.9603 4.18601 5 4 5C3.81399 5 3.6298 4.9603 3.45795 4.88316C3.2861 4.80602 3.12996 4.69296 2.99844 4.55044L-5.69031e-08 1.30179Z"/>
</mask>
<path d="M-5.69031e-08 1.30179L1.2021 -2.97146e-07L4 3.03138L6.7979 -5.25453e-08L8 1.30179L5.00156 4.55044C4.87004 4.69296 4.7139 4.80602 4.54205 4.88316C4.3702 4.9603 4.18601 5 4 5C3.81399 5 3.6298 4.9603 3.45795 4.88316C3.2861 4.80602 3.12996 4.69296 2.99844 4.55044L-5.69031e-08 1.30179Z" fill="#180D2F"/>
<path d="M-5.69031e-08 1.30179L-15.6731 -13.1711L-29.0345 1.29837L-15.6766 15.771L-5.69031e-08 1.30179ZM1.2021 -2.97146e-07L16.8787 -14.4692L1.2058 -31.4498L-14.471 -14.4729L1.2021 -2.97146e-07ZM4 3.03138L-11.6766 17.5005L4 34.4852L19.6766 17.5005L4 3.03138ZM6.7979 -5.25453e-08L22.4711 -14.4729L6.79421 -31.4499L-8.87865 -14.4692L6.7979 -5.25453e-08ZM8 1.30179L23.6766 15.771L37.0345 1.29838L23.6732 -13.1711L8 1.30179ZM5.00156 4.55044L-10.675 -9.91873L-10.6769 -9.91667L5.00156 4.55044ZM2.99844 4.55044L18.6769 -9.91667L18.675 -9.91873L2.99844 4.55044ZM15.6731 15.7747L16.8752 14.4729L-14.471 -14.4729L-15.6731 -13.1711L15.6731 15.7747ZM-14.4745 14.4692L-11.6766 17.5005L19.6766 -11.4378L16.8787 -14.4692L-14.4745 14.4692ZM19.6766 17.5005L22.4745 14.4692L-8.87865 -14.4692L-11.6766 -11.4378L19.6766 17.5005ZM-8.87525 14.4729L-7.67315 15.7746L23.6732 -13.1711L22.4711 -14.4729L-8.87525 14.4729ZM-7.67655 -13.1674L-10.675 -9.91873L20.6781 19.0196L23.6766 15.771L-7.67655 -13.1674ZM-10.6769 -9.91667C-8.91425 -11.8269 -6.72803 -13.442 -4.19396 -14.5794L13.2781 24.3458C16.1558 23.0541 18.6543 21.2128 20.68 19.0175L-10.6769 -9.91667ZM-4.19396 -14.5794C-1.65435 -15.7194 1.13554 -16.3333 4 -16.3333L4 26.3333C7.23649 26.3333 10.3948 25.64 13.2781 24.3458L-4.19396 -14.5794ZM4 -16.3333C6.86446 -16.3333 9.65435 -15.7194 12.194 -14.5794L-5.27807 24.3458C-2.39476 25.64 0.763513 26.3333 4 26.3333L4 -16.3333ZM12.194 -14.5794C14.728 -13.442 16.9143 -11.8269 18.6769 -9.91667L-12.68 19.0175C-10.6543 21.2128 -8.15584 23.0541 -5.27807 24.3458L12.194 -14.5794ZM18.675 -9.91873L15.6766 -13.1674L-15.6766 15.771L-12.6781 19.0196L18.675 -9.91873Z" fill="#787088" mask="url(#path-1-inside-1_601_904)"/>
</svg>
