<svg width="11" height="11" viewBox="0 0 11 11" fill="none" xmlns="http://www.w3.org/2000/svg">
<g id="&#208;&#152;&#208;&#186;&#208;&#190;&#208;&#189;&#208;&#186;&#208;&#176; / &#208;&#160;&#208;&#176;&#208;&#183;&#208;&#180;&#208;&#181;&#208;&#187;" clip-path="url(#clip0_320_3648)">
<path id="Vector" d="M4.125 8.25H0V4.125C0 3.30915 0.241927 2.51163 0.695188 1.83327C1.14845 1.15492 1.79269 0.62621 2.54643 0.313999C3.30018 0.0017873 4.12958 -0.0799014 4.92975 0.0792626C5.72992 0.238427 6.46492 0.631295 7.04182 1.20819C7.61871 1.78508 8.01158 2.52008 8.17074 3.32025C8.3299 4.12042 8.24822 4.94982 7.936 5.70357C7.62379 6.45731 7.09508 7.10155 6.41673 7.55481C5.73837 8.00807 4.94085 8.25 4.125 8.25V8.25ZM9.16667 4.16167C9.15612 5.48582 8.62543 6.75274 7.68908 7.68908C6.75274 8.62543 5.48581 9.15612 4.16167 9.16667V9.16667C4.48316 9.72352 4.94545 10.186 5.50213 10.5078C6.05882 10.8296 6.69034 10.9993 7.33333 11H11V7.33333C10.9993 6.69034 10.8296 6.05882 10.5078 5.50213C10.186 4.94545 9.72352 4.48317 9.16667 4.16167Z" fill="#FF002E"/>
</g>
<defs>
<clipPath id="clip0_320_3648">
<rect width="11" height="11" fill="white"/>
</clipPath>
</defs>
</svg>
