<svg width="18" height="14" viewBox="0 0 18 14" fill="none" xmlns="http://www.w3.org/2000/svg">
<g id="Group 1">
<path id="Vector" d="M17.2786 4.66385C15.4573 1.85378 12.3478 0.144698 8.99923 0.113281C5.65068 0.144698 2.54118 1.85378 0.719862 4.66385C-0.239954 6.07244 -0.239954 7.92493 0.719862 9.33356C2.54015 12.1454 5.64984 13.8562 8.99926 13.8887C12.3478 13.8572 15.4573 12.1482 17.2787 9.33808C18.2405 7.92843 18.2405 6.07347 17.2786 4.66385ZM15.415 8.05643C14.0244 10.262 11.6065 11.6076 8.99923 11.6269C6.392 11.6076 3.97405 10.262 2.58348 8.05643C2.14997 7.41954 2.14997 6.58236 2.58348 5.94551C3.97401 3.73994 6.39196 2.39433 8.99923 2.375C11.6065 2.39429 14.0244 3.73994 15.415 5.94551C15.8485 6.58236 15.8485 7.41954 15.415 8.05643Z" fill="#FF002E"/>
<path id="Vector_2" d="M8.99998 10.0156C10.6655 10.0156 12.0156 8.66546 12.0156 6.99998C12.0156 5.33451 10.6655 3.98438 8.99998 3.98438C7.33451 3.98438 5.98438 5.33451 5.98438 6.99998C5.98438 8.66546 7.33451 10.0156 8.99998 10.0156Z" fill="#FF002E"/>
</g>
</svg>
