<svg width="16" height="16" viewBox="0 0 16 16" fill="none" xmlns="http://www.w3.org/2000/svg">
<g id="&#208;&#152;&#208;&#186;&#208;&#190;&#208;&#189;&#208;&#186;&#208;&#176; / &#208;&#155;&#209;&#131;&#208;&#191;&#208;&#176;">
<path id="Vector" d="M12.6109 11.1994C13.6718 9.7816 14.1563 8.01449 13.9667 6.25383C13.7772 4.49317 12.9277 2.86968 11.5893 1.71016C10.2509 0.550642 8.52288 -0.058813 6.75318 0.0044787C4.98348 0.0677704 3.30345 0.799109 2.05128 2.05128C0.799109 3.30345 0.0677704 4.98348 0.0044787 6.75318C-0.058813 8.52288 0.550642 10.2509 1.71016 11.5893C2.86968 12.9277 4.49317 13.7772 6.25383 13.9667C8.01449 14.1563 9.7816 13.6718 11.1994 12.6109L14.5885 16L16 14.5912L12.6109 11.1994ZM7.02884 12.0128C6.0431 12.0128 5.0795 11.7205 4.25989 11.1729C3.44027 10.6252 2.80147 9.84683 2.42424 8.93612C2.04701 8.02542 1.94831 7.02331 2.14062 6.05651C2.33293 5.08971 2.80761 4.20165 3.50463 3.50463C4.20165 2.80761 5.08971 2.33293 6.05651 2.14062C7.02331 1.94831 8.02542 2.04701 8.93612 2.42424C9.84683 2.80147 10.6252 3.44027 11.1729 4.25989C11.7205 5.0795 12.0128 6.0431 12.0128 7.02884C12.0116 8.35029 11.4861 9.61727 10.5517 10.5517C9.61727 11.4861 8.35029 12.0116 7.02884 12.0128Z" fill="white"/>
</g>
</svg>
