<svg width="14" height="14" viewBox="0 0 14 14" fill="none" xmlns="http://www.w3.org/2000/svg">
<g id="Group 38">
<path id="Vector" d="M7 14C5.61553 14 4.26215 13.5895 3.11101 12.8203C1.95987 12.0511 1.06266 10.9579 0.532846 9.67879C0.003033 8.3997 -0.13559 6.99224 0.134506 5.63437C0.404603 4.2765 1.07129 3.02922 2.05026 2.05026C3.02922 1.07129 4.2765 0.404603 5.63437 0.134506C6.99224 -0.13559 8.3997 0.003033 9.67879 0.532846C10.9579 1.06266 12.0511 1.95987 12.8203 3.11101C13.5895 4.26215 14 5.61553 14 7C13.998 8.8559 13.2599 10.6352 11.9475 11.9475C10.6352 13.2599 8.8559 13.998 7 14ZM7 1.75C5.96165 1.75 4.94662 2.05791 4.08326 2.63479C3.2199 3.21166 2.547 4.0316 2.14964 4.99091C1.75228 5.95023 1.64831 7.00583 1.85088 8.02423C2.05345 9.04263 2.55347 9.97809 3.28769 10.7123C4.02192 11.4465 4.95738 11.9466 5.97578 12.1491C6.99418 12.3517 8.04978 12.2477 9.00909 11.8504C9.9684 11.453 10.7883 10.7801 11.3652 9.91674C11.9421 9.05339 12.25 8.03835 12.25 7C12.2485 5.60809 11.6948 4.27363 10.7106 3.2894C9.72638 2.30517 8.39191 1.75155 7 1.75Z" fill="#FF002E"/>
<path id="Vector_2" d="M4.91206 9.2722L3.9834 7.78937L6.12481 6.44829V3.6582H7.87481V7.41662L4.91206 9.2722Z" fill="#FF002E"/>
</g>
</svg>
